<svg version="1.1" id="Layer_1" xmlns="http://www.w3.org/2000/svg" xmlns:xlink="http://www.w3.org/1999/xlink" x="0px" y="0px"
	 width="100%" viewBox="0 0 1890 520" enable-background="new 0 0 1890 520" xml:space="preserve">
<path fill="#FFFFFF" opacity="1.000000" stroke="none" 
	d="
M1210.000000,521.000000 
	C808.166687,521.000000 406.833344,520.993896 5.500023,521.093018 
	C1.750935,521.093933 0.903810,520.249329 0.906191,516.499939 
	C1.014371,346.166656 1.014371,175.833313 0.906191,5.500060 
	C0.903810,1.750683 1.750995,0.906679 5.500014,0.907257 
	C632.500000,1.003920 1259.500000,1.003920 1886.500000,0.907257 
	C1890.249023,0.906680 1891.096191,1.750681 1891.093750,5.500059 
	C1890.985596,175.833313 1890.985596,346.166656 1891.093750,516.499939 
	C1891.096191,520.249329 1890.249146,521.095215 1886.500000,521.093445 
	C1661.166626,520.989136 1435.833374,521.000000 1210.000000,521.000000 
z"/>
<path fill="#FD9A44" opacity="1.000000" stroke="none" 
	d="
M1206.055054,467.936951 
	C1204.436279,446.564514 1203.371948,425.603699 1199.094238,404.998505 
	C1197.595825,397.781921 1193.583984,391.882050 1189.385986,386.042877 
	C1187.974609,384.079742 1186.123535,384.091705 1184.091431,384.097931 
	C1174.592041,384.127106 1165.084595,384.337189 1155.596802,384.006805 
	C1151.392700,383.860382 1150.734009,385.473083 1150.745605,389.167603 
	C1150.860352,426.165039 1150.714111,463.163574 1150.936890,500.160034 
	C1150.966309,505.052917 1149.656616,506.245178 1144.873413,506.142883 
	C1129.714600,505.818756 1114.540405,505.827332 1099.380981,506.136810 
	C1094.536987,506.235718 1092.970825,505.267639 1092.991943,499.979706 
	C1093.218384,442.983978 1093.170654,385.987000 1093.097900,328.990479 
	C1093.084961,318.837402 1092.783081,308.686981 1092.379761,298.529816 
	C1091.672729,280.726166 1084.725952,265.710632 1074.192627,251.888779 
	C1068.235229,244.071579 1068.324219,244.004379 1076.353271,238.391830 
	C1089.050049,229.516632 1101.832153,220.759583 1114.380981,211.679962 
	C1117.437866,209.468109 1119.521973,209.635468 1122.208984,211.903656 
	C1127.850464,216.665863 1133.113281,221.779953 1136.759521,228.235687 
	C1138.497681,231.312897 1139.919922,231.636520 1142.813599,229.614273 
	C1152.102295,223.123093 1161.839355,217.384796 1172.068359,212.434891 
	C1181.104492,208.062241 1189.676392,208.339096 1198.150269,213.605133 
	C1218.562744,226.290482 1236.122803,242.336594 1251.940308,260.254089 
	C1259.602051,268.933197 1259.866577,280.052124 1259.573120,291.020905 
	C1259.568604,291.186768 1259.505737,291.354950 1259.521606,291.516998 
	C1261.492676,311.616028 1252.028687,326.684448 1238.291992,339.899139 
	C1235.771484,342.323975 1233.566895,345.099701 1230.913818,347.358032 
	C1228.294434,349.587524 1228.173340,351.021851 1230.852539,353.474548 
	C1236.870728,358.983856 1242.310913,365.089539 1247.890259,371.053741 
	C1256.627686,380.393707 1261.678711,391.043549 1262.988403,403.901794 
	C1266.261963,436.041168 1269.427002,468.171722 1270.275146,500.493958 
	C1270.385254,504.689850 1269.611450,506.228638 1264.960693,506.145966 
	C1247.633911,505.838043 1230.296143,505.872070 1212.967651,506.130280 
	C1208.689209,506.194031 1207.847412,504.856537 1207.757690,500.825836 
	C1207.516968,490.012512 1206.677368,479.212524 1206.055054,467.936951 
z"/>
<path fill="#FD9A43" opacity="1.000000" stroke="none" 
	d="
M551.002258,443.276550 
	C544.839905,443.339661 539.173096,443.554260 533.515442,443.410675 
	C529.915466,443.319275 529.134094,444.879883 529.160645,448.195679 
	C529.300720,465.690979 529.055176,483.190857 529.343079,500.682556 
	C529.417480,505.201660 528.094604,506.199890 523.773010,506.127136 
	C507.947388,505.860809 492.113312,505.916199 476.285400,506.102661 
	C472.755890,506.144257 471.840973,505.117889 471.850433,501.634766 
	C472.020172,439.148529 472.069977,376.661926 472.120758,314.175415 
	C472.128662,304.424561 472.800720,294.741608 475.135956,285.253876 
	C477.642700,275.069427 483.926422,267.001617 490.578094,259.310333 
	C504.246979,243.505157 519.509583,229.447891 536.660767,217.388458 
	C550.911255,207.368561 564.694336,206.796280 579.077332,217.021988 
	C600.281433,232.097244 619.219299,249.422562 634.411133,270.667847 
	C640.459412,279.126129 642.627197,288.756653 643.039734,298.888123 
	C645.757751,365.654572 643.597961,432.452271 644.248108,499.232605 
	C644.324463,507.078522 645.263489,505.972717 637.264832,506.004425 
	C622.101501,506.064514 606.935059,505.865326 591.775940,506.125397 
	C587.695923,506.195374 586.853027,504.890778 586.894104,501.085358 
	C587.084473,483.424377 586.839172,465.758209 587.081726,448.098511 
	C587.138245,443.982788 585.789917,443.106781 581.993408,443.195526 
	C571.834412,443.432953 561.666260,443.276398 551.002258,443.276550 
z"/>
<path fill="#FD9A44" opacity="1.000000" stroke="none" 
	d="
M881.351562,332.115051 
	C881.896179,319.322266 881.792175,306.990540 883.016479,294.705872 
	C884.000549,284.831146 887.356628,275.971527 893.401367,268.114838 
	C908.556580,248.416779 926.590454,231.794937 946.750854,217.301880 
	C960.886780,207.139740 974.426025,207.085098 988.600098,217.207001 
	C1008.538391,231.445206 1026.194214,247.981613 1041.435181,267.154877 
	C1048.883911,276.525421 1052.337646,287.269257 1052.875122,299.030212 
	C1054.732422,339.662109 1054.519165,380.291901 1052.988403,420.936066 
	C1052.364502,437.498413 1044.591309,450.430176 1033.964233,462.152832 
	C1021.180115,476.254883 1007.502686,489.416748 991.973267,500.513092 
	C972.892883,514.146912 963.075806,514.380127 944.020447,500.821320 
	C925.601562,487.715393 909.627380,471.965149 895.157288,454.574829 
	C884.894043,442.240295 882.589417,427.741608 882.024841,412.566193 
	C881.033447,385.918091 881.253357,359.257874 881.351562,332.115051 
z"/>
<path fill="#FD9A44" opacity="1.000000" stroke="none" 
	d="
M853.074646,413.008911 
	C850.792175,427.184967 845.114929,439.464417 837.070679,450.729675 
	C824.242737,468.694305 809.882385,485.292358 792.972351,499.552399 
	C775.343506,514.418518 765.413879,514.679504 747.696106,499.905823 
	C728.248352,483.689575 711.891785,464.633484 698.271729,443.275452 
	C689.427917,429.407257 686.579773,413.757690 684.932251,397.739746 
	C683.616028,384.942413 683.909302,372.117615 683.901611,359.296417 
	C683.873962,312.808350 683.978455,266.319885 683.763428,219.832825 
	C683.740295,214.839264 685.191040,213.834427 689.874695,213.926346 
	C705.364746,214.230438 720.866821,214.190445 736.358826,213.940460 
	C740.440918,213.874588 741.266724,215.219330 741.260193,219.012360 
	C741.165588,273.831299 741.296509,328.650635 741.197815,383.469574 
	C741.156921,406.173340 746.238708,427.027496 761.610229,444.510895 
	C761.719971,444.635712 761.811829,444.776093 761.916687,444.905426 
	C768.557800,453.098206 771.391479,453.048035 778.199463,445.055298 
	C792.437988,428.339172 798.958374,408.954193 798.858337,387.114014 
	C798.749268,363.287750 798.645508,339.458801 798.878967,315.634338 
	C799.125854,290.438965 792.828430,267.544342 776.189636,248.124588 
	C773.845337,245.388535 774.716492,244.224350 777.204285,242.469849 
	C791.630371,232.295761 806.039368,222.092422 820.250427,211.622452 
	C823.429504,209.280289 825.388306,209.786758 827.924255,212.200150 
	C839.580078,223.292740 845.399170,237.594879 849.884644,252.511551 
	C854.023682,266.276123 856.046570,280.464020 856.091614,294.844116 
	C856.186646,325.168427 856.127930,355.493622 856.009094,385.817993 
	C855.973877,394.818939 854.786804,403.737396 853.074646,413.008911 
z"/>
<path fill="#FD9A43" opacity="1.000000" stroke="none" 
	d="
M1588.923584,415.000000 
	C1588.923584,362.854401 1588.963135,311.208710 1588.843750,259.563385 
	C1588.834839,255.687317 1589.850098,253.258560 1593.184570,250.994080 
	C1609.988159,239.582550 1626.606445,227.897263 1643.240601,216.237823 
	C1645.375000,214.741745 1647.493896,213.986923 1650.147217,213.994125 
	C1678.302124,214.070541 1706.458008,214.116653 1734.612183,213.953033 
	C1738.420288,213.930893 1739.367065,215.041473 1739.310547,218.733612 
	C1739.098511,232.558060 1739.056030,246.391052 1739.329346,260.213348 
	C1739.411255,264.344696 1737.993896,265.106537 1734.231689,265.079437 
	C1711.908691,264.918488 1689.578979,265.257751 1667.262817,264.831787 
	C1661.135254,264.714813 1657.646851,268.578339 1653.066895,270.994080 
	C1647.550415,273.903900 1645.853149,278.030334 1646.065918,284.266693 
	C1646.565796,298.910309 1646.348633,313.584320 1646.143188,328.242126 
	C1646.089233,332.096954 1647.061890,333.373077 1651.112427,333.335754 
	C1672.768433,333.136261 1694.428101,333.336761 1716.084351,333.154236 
	C1719.976318,333.121429 1721.190552,334.100952 1721.117798,338.113464 
	C1720.867065,351.936615 1720.899048,365.768921 1721.104370,379.593597 
	C1721.157715,383.192230 1719.989136,384.009552 1716.572632,383.986938 
	C1694.749146,383.842590 1672.923340,384.018280 1651.100708,383.818878 
	C1647.080811,383.782166 1646.108887,384.984772 1646.139893,388.867096 
	C1646.317261,411.023285 1646.360718,433.183136 1646.115479,455.338043 
	C1646.064697,459.925171 1647.579346,460.838135 1651.823975,460.813782 
	C1681.477539,460.643646 1711.133179,460.800354 1740.786743,460.633667 
	C1744.807373,460.611084 1746.242920,461.461304 1746.152466,465.772522 
	C1745.869507,479.261078 1745.933960,492.760925 1746.125977,506.252716 
	C1746.176392,509.788177 1745.525635,511.108734 1741.563965,511.096832 
	C1692.251099,510.948700 1642.937500,510.940704 1593.624878,511.105438 
	C1589.388550,511.119598 1588.839966,509.593170 1588.854614,505.962799 
	C1588.976318,475.808929 1588.923584,445.654358 1588.923584,415.000000 
z"/>
<path fill="#FD9B44" opacity="1.000000" stroke="none" 
	d="
M189.404129,276.431061 
	C180.042450,285.359253 177.538742,296.556091 177.146622,308.492950 
	C176.900543,315.983887 177.072922,323.490204 176.749008,330.976257 
	C176.594101,334.556091 177.906860,335.445831 181.315994,335.424927 
	C202.806519,335.292847 224.299606,335.484528 245.788467,335.254242 
	C250.192291,335.207031 251.437119,336.367065 251.337555,340.803497 
	C251.034836,354.291260 251.095383,367.792267 251.313705,381.283295 
	C251.373825,384.999146 250.381927,386.080811 246.597656,386.048676 
	C225.107864,385.866180 203.613876,386.109589 182.125900,385.840881 
	C177.559494,385.783783 176.700272,387.184875 176.719757,391.433990 
	C176.886948,427.918518 176.745529,464.404419 176.911743,500.888977 
	C176.930786,505.067474 175.765610,506.178467 171.649841,506.117889 
	C155.826324,505.884857 139.996262,505.925232 124.171173,506.096680 
	C120.490494,506.136536 119.019066,505.474670 119.031418,501.275360 
	C119.199471,444.132385 119.031326,386.988159 119.283585,329.845764 
	C119.344444,316.058929 120.154846,302.259003 122.712517,288.603943 
	C124.350876,279.856934 127.732826,272.103851 133.314621,265.255890 
	C147.485840,247.870026 163.775406,232.720779 181.463974,218.956573 
	C193.775482,209.376495 206.878616,206.816315 221.725189,211.909058 
	C246.025421,220.244659 268.076782,232.107498 285.560638,251.374496 
	C290.095459,256.371857 289.967072,256.476105 284.369629,260.358765 
	C272.055817,268.900238 259.686890,277.364532 247.481430,286.058197 
	C244.528595,288.161438 242.637955,288.423004 239.973526,285.533875 
	C235.226944,280.386963 229.694550,276.050903 223.835938,272.189636 
	C208.494705,262.078613 202.164246,262.829926 189.404129,276.431061 
z"/>
<path fill="#FD9B44" opacity="1.000000" stroke="none" 
	d="
M1452.132568,384.000000 
	C1452.132568,347.008270 1452.077148,310.516296 1452.213867,274.025085 
	C1452.228271,270.177826 1451.315186,268.912445 1447.276978,268.980011 
	C1432.451172,269.228058 1417.617432,268.981171 1402.789429,269.150177 
	C1399.319580,269.189728 1397.812256,268.668457 1397.892944,264.625549 
	C1398.169067,250.800858 1398.100098,236.965973 1397.925049,223.137985 
	C1397.883179,219.824478 1398.907593,218.968887 1402.142578,218.974548 
	C1454.797241,219.066711 1507.451904,219.063889 1560.106567,218.978180 
	C1563.147949,218.973236 1564.105347,219.774155 1564.070190,222.887161 
	C1563.912109,236.882202 1563.867432,250.882172 1564.090088,264.875458 
	C1564.149780,268.620117 1562.720215,269.176575 1559.461426,269.143707 
	C1544.632935,268.994110 1529.799316,269.238861 1514.973999,268.976562 
	C1510.744873,268.901703 1509.774170,270.199951 1509.780396,274.274139 
	C1509.898682,351.089905 1509.874390,427.905884 1509.855957,504.721832 
	C1509.854248,511.881470 1510.669678,510.967529 1503.370605,510.988647 
	C1488.207520,511.032532 1473.037842,510.755402 1457.884399,511.139618 
	C1452.789673,511.268799 1452.007812,509.564667 1452.028442,504.972595 
	C1452.208374,464.815704 1452.132446,424.657684 1452.132568,384.000000 
z"/>
<path fill="#FD9B44" opacity="1.000000" stroke="none" 
	d="
M294.183838,501.771484 
	C294.183533,407.805298 294.175720,314.312775 294.197327,220.820236 
	C294.199127,213.001450 293.247314,214.083496 301.206360,214.054535 
	C316.204956,213.999924 331.207397,214.220200 346.200562,213.929337 
	C350.756653,213.840958 351.984192,215.051208 351.975067,219.667892 
	C351.824768,295.828156 351.868195,371.988831 351.868225,448.149414 
	C351.868225,449.315979 352.010254,450.503387 351.842560,451.645294 
	C351.315460,455.234680 352.885132,456.064911 356.313751,456.049042 
	C384.477539,455.918854 412.642883,456.070129 440.805939,455.875488 
	C445.096893,455.845856 446.508392,456.762512 446.397064,461.310577 
	C446.066864,474.801422 446.188629,488.306549 446.344238,501.803680 
	C446.381073,504.999695 445.551453,506.098145 442.194214,506.091187 
	C394.198273,505.992004 346.201996,506.003204 298.205933,506.073517 
	C295.314850,506.077728 293.683502,505.464386 294.183838,501.771484 
z"/>
<path fill="#FD9F4B" opacity="1.000000" stroke="none" 
	d="
M1321.932251,384.004761 
	C1320.947021,416.463165 1319.967529,448.422821 1318.974976,480.382050 
	C1318.876099,483.563629 1318.973755,486.705536 1320.001099,489.766174 
	C1322.332764,496.713226 1327.915039,501.140137 1334.265991,501.033234 
	C1340.258423,500.932404 1345.909912,496.412506 1347.988525,489.716431 
	C1350.166260,482.700653 1348.920898,475.467712 1348.761230,468.351349 
	C1348.298096,447.706573 1347.500854,427.069458 1346.879761,406.427979 
	C1345.526978,361.478271 1344.230347,316.526855 1342.854980,271.577850 
	C1342.055298,245.441696 1341.259766,219.304321 1340.200439,193.178101 
	C1339.970825,187.518005 1341.680664,183.101746 1345.699951,179.370590 
	C1347.164307,178.011063 1348.558716,176.559616 1350.125854,175.329453 
	C1366.552002,162.435379 1368.865967,144.731201 1367.919922,125.467934 
	C1366.645142,99.515831 1365.459351,73.566246 1363.143311,47.681690 
	C1362.267944,37.897964 1361.332886,28.119577 1360.424072,18.338837 
	C1360.346924,17.509361 1360.234497,16.682014 1360.189697,15.850920 
	C1360.051392,13.278221 1361.317749,11.554877 1363.793701,11.285795 
	C1366.547852,10.986472 1367.514404,12.920367 1367.733765,15.368164 
	C1368.313354,21.836584 1368.983643,28.297571 1369.497070,34.771088 
	C1372.236694,69.305916 1375.168579,103.810753 1375.121216,138.522949 
	C1375.101440,152.953613 1371.054932,164.963715 1360.532104,174.781097 
	C1359.681396,175.574844 1359.053345,176.654144 1358.114868,177.300232 
	C1348.430908,183.966995 1347.288452,193.295319 1347.800171,204.334457 
	C1349.427490,239.444824 1350.064209,274.600555 1351.152222,309.736603 
	C1352.910400,366.514557 1354.733154,423.290527 1356.481323,480.068787 
	C1356.562866,482.717102 1356.380249,485.409088 1355.985596,488.030304 
	C1354.247070,499.578735 1344.649048,508.508514 1334.162354,508.481140 
	C1323.143555,508.452393 1313.391968,499.271057 1312.045654,487.339905 
	C1310.713257,475.532410 1312.250977,463.715332 1312.424805,451.905975 
	C1312.735962,430.757111 1313.624023,409.616730 1314.274414,388.472931 
	C1315.278198,355.841919 1316.292969,323.211243 1317.288208,290.579987 
	C1318.269165,258.422974 1319.138306,226.262054 1320.306641,194.111938 
	C1320.474121,189.504501 1319.277832,186.236313 1315.853882,183.224197 
	C1312.238525,180.043747 1309.133423,176.288483 1305.743042,172.845734 
	C1297.260376,164.231995 1293.240845,153.995911 1293.069214,141.817657 
	C1292.739990,118.460426 1294.067871,95.180275 1295.642578,71.912903 
	C1296.845581,54.137539 1298.628174,36.401413 1300.151123,18.647675 
	C1300.250732,17.485924 1300.289795,16.317122 1300.436157,15.161624 
	C1300.758545,12.616182 1302.236450,11.137095 1304.797974,11.426561 
	C1307.175903,11.695287 1308.107178,13.423539 1307.903687,15.752977 
	C1307.469116,20.729631 1307.018188,25.704870 1306.588989,30.681973 
	C1303.469116,66.855919 1300.273315,103.008293 1300.528687,139.392838 
	C1300.615112,151.710007 1304.156128,161.867081 1313.207275,170.143417 
	C1314.803223,171.602692 1316.046387,173.508011 1317.782471,174.743576 
	C1326.874390,181.214142 1328.538086,190.039413 1327.785278,200.643341 
	C1326.547974,218.069977 1326.486816,235.580078 1325.926880,253.054901 
	C1324.677612,292.041443 1323.420166,331.027740 1322.184204,370.014679 
	C1322.041748,374.509857 1322.014893,379.008698 1321.932251,384.004761 
z"/>
<path fill="#FDA354" opacity="1.000000" stroke="none" 
	d="
M1340.229004,33.000504 
	C1340.228760,27.675442 1340.206421,22.850073 1340.235962,18.025024 
	C1340.254028,15.072670 1339.649780,11.308538 1343.966309,11.200012 
	C1348.345703,11.089910 1347.882690,14.824325 1347.883667,17.812328 
	C1347.891479,41.938499 1347.887817,66.064667 1347.887817,90.190842 
	C1347.887817,96.513565 1347.914917,102.836441 1347.876587,109.158936 
	C1347.857910,112.237297 1348.645142,116.395760 1343.967285,116.241676 
	C1339.449097,116.092850 1340.250854,111.930016 1340.246826,108.873734 
	C1340.213501,83.749306 1340.228638,58.624805 1340.229004,33.000504 
z"/>
<path fill="#FD9E4A" opacity="1.000000" stroke="none" 
	d="
M1328.478027,56.000168 
	C1328.477905,73.497742 1328.486450,90.495308 1328.467163,107.492836 
	C1328.465088,109.321991 1328.361816,111.156464 1328.196655,112.978600 
	C1327.996582,115.185623 1326.622437,116.259972 1324.490479,116.163193 
	C1322.313110,116.064362 1321.220947,114.720741 1321.124634,112.581528 
	C1321.072144,111.417107 1321.091064,110.249138 1321.091064,109.082764 
	C1321.089600,78.753792 1321.088623,48.424812 1321.094360,18.095839 
	C1321.094604,16.764624 1320.989624,15.401731 1321.232666,14.109825 
	C1321.574707,12.291607 1322.805664,11.175830 1324.714478,11.126626 
	C1326.662231,11.076419 1327.878906,12.194647 1328.212036,14.028941 
	C1328.477295,15.489159 1328.466797,17.010950 1328.468994,18.505566 
	C1328.486694,30.837072 1328.478760,43.168613 1328.478027,56.000168 
z"/>
<path fill="#FFFEFD" opacity="1.000000" stroke="none" 
	d="
M1195.030762,287.159424 
	C1198.527954,298.935822 1196.333496,309.266296 1188.966919,318.464172 
	C1186.268921,321.832794 1183.076172,324.800079 1180.239990,328.064148 
	C1172.808838,336.616058 1162.875732,336.065674 1152.996826,335.606934 
	C1149.736328,335.455566 1150.854492,332.711884 1150.858643,330.984222 
	C1150.900146,313.663269 1150.837646,296.345703 1150.035278,279.038727 
	C1149.942749,277.042633 1150.061890,275.005280 1149.691162,273.061737 
	C1149.255981,270.779114 1150.002319,269.704834 1152.179321,269.082214 
	C1160.032715,266.835999 1167.951050,265.033936 1176.141602,264.540100 
	C1179.797607,264.319702 1182.099121,266.365784 1184.083618,268.903290 
	C1188.400757,274.423737 1192.263672,280.239990 1195.030762,287.159424 
z"/>
<path fill="#FFFFFF" opacity="1.000000" stroke="none" 
	d="
M536.089294,393.297974 
	C529.229919,393.273895 529.243896,393.273865 529.223511,386.770203 
	C529.155823,365.117004 528.454590,343.440369 529.267700,321.820526 
	C529.669312,311.140289 528.511536,299.827850 534.521240,289.890808 
	C538.695740,282.988220 543.703186,276.801727 550.191895,271.986450 
	C556.216492,267.515533 560.974976,267.749603 566.973511,272.564850 
	C579.438232,282.570740 585.961060,295.256012 586.378235,311.586182 
	C587.019775,336.694824 586.867249,361.796387 586.973694,386.901672 
	C587.000793,393.291962 586.974487,393.295746 580.562073,393.296814 
	C565.900513,393.299225 551.238953,393.297699 536.089294,393.297974 
z"/>
<path fill="#FFFEFE" opacity="1.000000" stroke="none" 
	d="
M953.041870,278.036133 
	C965.023621,265.801208 970.642883,265.917755 982.269287,277.783905 
	C991.082153,286.778473 995.601135,297.274780 995.983154,309.940155 
	C996.992493,343.408173 996.899597,376.858978 996.008240,410.329346 
	C995.592896,425.924500 988.475403,437.599518 977.005188,447.174713 
	C970.330017,452.747009 965.482605,452.591187 958.623535,447.285065 
	C944.781311,436.576599 939.076111,422.234924 939.161682,405.028778 
	C939.310852,375.049805 939.138733,345.069336 939.231750,315.089905 
	C939.274780,301.227966 942.049866,288.264771 953.041870,278.036133 
z"/>
</svg>